<?xml version="1.0" encoding="UTF-8" standalone="no"?>
<!DOCTYPE svg PUBLIC "-//W3C//DTD SVG 1.1//EN" "http://www.w3.org/Graphics/SVG/1.1/DTD/svg11.dtd">
<svg width="100%" height="100%" viewBox="0 0 1024 1024" version="1.1" xmlns="http://www.w3.org/2000/svg" xmlns:xlink="http://www.w3.org/1999/xlink" xml:space="preserve" xmlns:serif="http://www.serif.com/" style="fill-rule:evenodd;clip-rule:evenodd;stroke-linejoin:round;stroke-miterlimit:2;">
    <g transform="matrix(1,0,0,1,0,97.0033)">
        <g transform="matrix(0.995997,0,0,0.993195,1.46224,3.48391)">
            <path d="M738.386,351.399L738.386,477.265C738.386,496.436 722.865,512 703.749,512L321.431,512C302.314,512 286.793,496.436 286.793,477.265L286.793,351.399C286.793,332.228 302.314,316.664 321.431,316.664L703.749,316.664C722.865,316.664 738.386,332.228 738.386,351.399Z" style="fill:white;"/>
        </g>
        <g transform="matrix(1,0,0,1,-101.236,68.081)">
            <path d="M463.558,407.648C470.765,407.648 475.511,402.726 475.335,395.519L474.984,358.869L506.449,306.925C509.437,301.828 510.58,299.015 510.58,296.115C510.58,290.05 506.097,285.656 499.857,285.656C494.935,285.656 491.331,288.468 487.904,294.709L463.91,337.775L463.031,337.775L439.388,294.709C435.96,288.205 432.621,285.656 427.523,285.656C420.931,285.656 416.537,289.963 416.537,296.466C416.537,299.367 417.503,302.004 420.228,306.574L451.956,358.869L451.605,395.519C451.429,402.726 456.175,407.648 463.558,407.648Z" style="fill-rule:nonzero;"/>
            <path d="M554.085,311.496C528.597,311.496 511.019,327.58 511.019,354.474L511.019,365.461C511.019,393.058 528.597,408.791 554.085,408.791C579.486,408.791 597.064,393.058 597.064,365.373L597.064,354.386C597.064,327.58 579.486,311.496 554.085,311.496ZM554.085,329.513C566.126,329.513 573.246,339.181 573.246,354.914L573.246,365.285C573.246,381.193 566.126,390.773 554.085,390.773C542.22,390.773 534.837,381.193 534.837,365.285L534.837,354.914C534.837,339.181 542.22,329.513 554.085,329.513Z" style="fill-rule:nonzero;"/>
            <path d="M612.357,354.123C612.357,389.279 630.374,409.318 662.455,409.318C676.956,409.318 688.822,405.275 697.259,397.98C704.29,392.091 708.773,384.357 708.773,378.029C708.773,372.14 704.818,368.273 698.753,368.273C694.71,368.273 692.074,369.855 688.294,374.513C681.966,384.357 673.968,388.927 663.773,388.927C645.931,388.927 636.175,376.359 636.175,353.332L636.175,339.709C636.175,317.56 646.107,304.904 663.773,304.904C673.88,304.904 681.175,309.474 687.855,319.494C691.634,324.152 694.622,325.822 698.841,325.822C704.642,325.822 708.685,321.955 708.685,315.978C708.685,310.617 705.081,303.41 699.193,297.609C690.667,289.172 677.66,284.513 662.455,284.513C630.726,284.513 612.357,304.728 612.357,338.742L612.357,354.123Z" style="fill-rule:nonzero;"/>
            <path d="M766.956,311.496C741.468,311.496 723.89,327.58 723.89,354.474L723.89,365.461C723.89,393.058 741.468,408.791 766.956,408.791C792.357,408.791 809.935,393.058 809.935,365.373L809.935,354.386C809.935,327.58 792.357,311.496 766.956,311.496ZM766.956,329.513C778.997,329.513 786.117,339.181 786.117,354.914L786.117,365.285C786.117,381.193 778.997,390.773 766.956,390.773C755.091,390.773 747.708,381.193 747.708,365.285L747.708,354.914C747.708,339.181 755.091,329.513 766.956,329.513Z" style="fill-rule:nonzero;"/>
        </g>
    </g>
</svg>
